<svg width="20" height="20" viewBox="0 0 20 20" fill="none" xmlns="http://www.w3.org/2000/svg">
<path d="M15.3986 10.6338C15.1311 10.6338 14.9144 10.8506 14.9144 11.118V16.0318H5.0866V11.118C5.0866 10.8506 4.86987 10.6338 4.60238 10.6338C4.3349 10.6338 4.11816 10.8506 4.11816 11.118V16.516C4.11816 16.7834 4.3349 17.0002 4.60238 17.0002H15.3986C15.6661 17.0002 15.8828 16.7834 15.8828 16.516V11.118C15.8828 10.8506 15.666 10.6338 15.3986 10.6338Z" fill="white"/>
<path d="M17.9761 10.7752L10.3418 3.1418C10.1527 2.9527 9.84612 2.95276 9.65702 3.1418L2.02366 10.7752C1.83456 10.9643 1.83456 11.2709 2.02366 11.46C2.11825 11.5545 2.24221 11.6018 2.3661 11.6018C2.49006 11.6018 2.61396 11.5545 2.70854 11.46L9.99952 4.16893L17.2914 11.46C17.4804 11.6491 17.7871 11.649 17.9762 11.4599C18.1652 11.2709 18.1652 10.9643 17.9761 10.7752Z" fill="white"/>
</svg>
