<?xml version="1.0" encoding="utf-8"?>
<svg viewBox="70.562 104.805 429.438 395.195" xmlns="http://www.w3.org/2000/svg">
  <g transform="matrix(1, 0, 0, 1, -415.906439, -71.964242)">
    <path class="st0" d="M602.9,471c14.8,16.6,49,49.5,87,49.6l0,0c0.1,0,0.2,0,0.3,0c38,0,72.3-32.4,87.2-48.9 c-14.8-16.6-49-49.5-87-49.6c-0.1,0-0.2,0-0.3,0C652,422.1,617.8,454.6,602.9,471z" style="fill: rgb(255, 255, 255);"/>
    <g>
      <path class="st1" d="M690.2,535.9c-0.1,0-0.2,0-0.3,0c-49-0.2-90.2-45.6-101.6-59.5l-4.5-5.5l4.6-5.4 c11.5-13.8,52.9-58.6,101.8-58.6c0.1,0,0.2,0,0.3,0c49,0.2,90.2,45.6,101.6,59.5l4.5,5.5l-4.6,5.4 C780.4,491,739.1,535.9,690.2,535.9z M602.9,471c14.8,16.6,49,49.5,87,49.6l0,0c0.1,0,0.2,0,0.3,0c38,0,72.3-32.4,87.2-48.9 c-14.8-16.6-49-49.5-87-49.6c-0.1,0-0.2,0-0.3,0C652,422.1,617.8,454.6,602.9,471z" style="fill: rgb(40, 40, 40);"/>
      <circle class="st2" cx="690.1" cy="471.4" r="31.1" style="fill: rgb(242, 97, 34);"/>
      <circle class="st0" cx="701.9" cy="463" r="11.3" style="fill: rgb(255, 255, 255);"/>
    </g>
    <g>
      <polygon class="st0" points="639.7,310.7 676.4,347.5 752.6,271.4 736.1,254.8 773.3,217.6 764.3,208.6 718,254.8 734.5,271.4 &#10;&#9;&#9;&#9;676.4,329.4 657.7,310.7 665.2,303.2 676.4,314.4 676.7,314.2 676.7,314.2 718.1,272.8 709.1,263.8 676.4,296.3 669.3,289.3 &#10;&#9;&#9;&#9;664.8,284.8 646.8,266.7 637.7,275.8 656.2,294.2 &#9;&#9;" style="fill: rgb(255, 255, 255);"/>
      <rect x="624.2" y="285.8" transform="matrix(0.7071 -0.7071 0.7071 0.7071 -22.2563 531.5806)" class="st0" width="12.7" height="13.7" style="fill: rgb(255, 255, 255);"/>
      <rect x="751.2" y="237.3" transform="matrix(0.7071 -0.7071 0.7071 0.7071 53.5687 616.6323)" class="st0" width="39.9" height="12.7" style="fill: rgb(255, 255, 255);"/>
      <g>
        <polygon class="st0" points="797.3,241.6 676.4,362.5 663.6,349.6 654.5,358.7 676.4,380.5 806.4,250.7 &#9;&#9;&#9;" style="fill: rgb(255, 255, 255);"/>
        <rect x="623.2" y="295.8" transform="matrix(0.7071 -0.7071 0.7071 0.7071 -45.1936 540.2924)" class="st0" width="12.7" height="57.8" style="fill: rgb(255, 255, 255);"/>
      </g>
    </g>
    <g>
      <g/>
    </g>
  </g>
</svg>