<?xml version="1.0" encoding="utf-8"?>
<!-- Generator: Adobe Illustrator 23.0.3, SVG Export Plug-In . SVG Version: 6.00 Build 0)  -->
<svg version="1.1" id="Layer_1" xmlns="http://www.w3.org/2000/svg" xmlns:xlink="http://www.w3.org/1999/xlink" x="0px" y="0px"
	 viewBox="0 0 1099.3 563.8" style="enable-background:new 0 0 1099.3 563.8;" xml:space="preserve">
<style type="text/css">
	.st0{fill:#FFFFFF;}
	.st1{fill:#282828;}
	.st2{fill:#F26122;}
</style>
<g>
	<path class="st0" d="M602.9,471c14.8,16.6,49,49.5,87,49.6l0,0c0.1,0,0.2,0,0.3,0c38,0,72.3-32.4,87.2-48.9
		c-14.8-16.6-49-49.5-87-49.6c-0.1,0-0.2,0-0.3,0C652,422.1,617.8,454.6,602.9,471z"/>
	<g>
		<path class="st1" d="M690.2,535.9c-0.1,0-0.2,0-0.3,0c-49-0.2-90.2-45.6-101.6-59.5l-4.5-5.5l4.6-5.4
			c11.5-13.8,52.9-58.6,101.8-58.6c0.1,0,0.2,0,0.3,0c49,0.2,90.2,45.6,101.6,59.5l4.5,5.5l-4.6,5.4
			C780.4,491,739.1,535.9,690.2,535.9z M602.9,471c14.8,16.6,49,49.5,87,49.6l0,0c0.1,0,0.2,0,0.3,0c38,0,72.3-32.4,87.2-48.9
			c-14.8-16.6-49-49.5-87-49.6c-0.1,0-0.2,0-0.3,0C652,422.1,617.8,454.6,602.9,471z"/>
		<circle class="st2" cx="690.1" cy="471.4" r="31.1"/>
		<circle class="st0" cx="701.9" cy="463" r="11.3"/>
	</g>
	<g>
		<polygon class="st0" points="639.7,310.7 676.4,347.5 752.6,271.4 736.1,254.8 773.3,217.6 764.3,208.6 718,254.8 734.5,271.4 
			676.4,329.4 657.7,310.7 665.2,303.2 676.4,314.4 676.7,314.2 676.7,314.2 718.1,272.8 709.1,263.8 676.4,296.3 669.3,289.3 
			664.8,284.8 646.8,266.7 637.7,275.8 656.2,294.2 		"/>
		
			<rect x="624.2" y="285.8" transform="matrix(0.7071 -0.7071 0.7071 0.7071 -22.2563 531.5806)" class="st0" width="12.7" height="13.7"/>
		
			<rect x="751.2" y="237.3" transform="matrix(0.7071 -0.7071 0.7071 0.7071 53.5687 616.6323)" class="st0" width="39.9" height="12.7"/>
		<g>
			<polygon class="st0" points="797.3,241.6 676.4,362.5 663.6,349.6 654.5,358.7 676.4,380.5 806.4,250.7 			"/>
			
				<rect x="623.2" y="295.8" transform="matrix(0.7071 -0.7071 0.7071 0.7071 -45.1936 540.2924)" class="st0" width="12.7" height="57.8"/>
		</g>
	</g>
	<g>
		<g>
			<path class="st0" d="M99.8,561.4H58.2v-144H5l7.7-32.4h131.8v32.4H99.8V561.4z"/>
			<path class="st0" d="M254.9,561.4L241.5,533h-70l-12.8,28.5h-45.8l90.2-181h6.8l90.2,181L254.9,561.4L254.9,561.4z M183.5,503.1
				h46.1l-23-51.2L183.5,503.1z"/>
			<path class="st0" d="M369.6,415.2c-11.7,0-21.9,5.4-21.9,15.9c0,29.9,79.7,19.1,79.7,78.8c0,31-23.6,54.1-65.7,54.1
				c-28.5,0-54.6-15.4-63.2-21.6l17.9-29.6c5.4,4,24.5,18.2,45.3,18.2c15.1,0,24.2-8.5,24.2-20.5c0-32.2-80.3-22.5-80.3-79.7
				c0-30.2,25-48.1,59.5-48.1c29.9,0,47.5,11.1,51.8,14.2l-2.8,33.6C407.7,425.4,389.5,415.2,369.6,415.2z"/>
			<path class="st0" d="M435.9,561.4V385H478v176.5L435.9,561.4L435.9,561.4z M590.1,385l-63.5,74.3L606,561.5h-49.8l-74.8-102.7
				l57.5-73.7h51.2V385z"/>
			<path class="st0" d="M911.1,385h46.7l-68,111v65.5h-42.1v-64.3c-20.2-32.4-48.7-80.5-68.3-112.1h46.1l43.3,77.1L911.1,385z"/>
			<path class="st0" d="M966.3,385h101.9v32.4h-59.8v32.7h43.8v32.7h-43.8v45.8h82.5l-7.7,32.7h-117V385H966.3z"/>
		</g>
	</g>
</g>
</svg>
